<?xml version="1.0" encoding="UTF-8"?>
<svg width="83px" height="24px" viewBox="0 0 83 24" version="1.1" xmlns="http://www.w3.org/2000/svg" xmlns:xlink="http://www.w3.org/1999/xlink">
    <!-- Generator: Sketch 43.2 (39069) - http://www.bohemiancoding.com/sketch -->
    <title>shiny_logo</title>
    <desc>Created with Sketch.</desc>
    <defs></defs>
    <g id="Page-1" stroke="none" stroke-width="1" fill="none" fill-rule="evenodd">
        <g id="Desktop" transform="translate(-225.000000, -411.000000)" fill="#4990E2">
            <g id="shiny_logo" transform="translate(225.000000, 411.000000)">
                <g>
                    <path d="M12.3267327,23.9316239 L0,7.76160776 L6.16336634,0 L18.490099,0 L24.6534653,7.76160776 L12.3267327,23.9316239 Z M12.3267327,22.1538462 L23.2838284,7.83183183 L17.8052805,0.957264957 L6.84818482,0.957264957 L1.36963696,7.83183183 L12.3267327,22.1538462 Z" id="Combined-Shape"></path>
                    <path d="M17.2745462,1.64102564 L19.8140814,4.82404951 L4.86221122,4.82404951 L7.40174642,1.64102564 L17.2745462,1.64102564 Z M19.7981007,10.9543177 L22.1952844,7.77129384 L2.46534653,7.77129384 L4.94335507,10.9543177 L19.7981007,10.9543177 Z M8.8569857,4.82404951 L6.46012101,7.77129384 L2.46534653,7.77129384 L4.86221122,4.82404951 L8.8569857,4.82404951 Z M19.7981007,10.9543177 L12.2810781,20.6212791 L12.2810781,15.7771888 L15.8193069,10.9543177 L19.7981007,10.9543177 Z M6.58135764,13.0507023 L12.2810781,20.6212791 L12.2810781,15.7771888 L10.2337229,13.0507023 L6.58135764,13.0507023 Z" id="Combined-Shape"></path>
                    <path d="M36.7272626,9.2575699 C36.3968962,8.98956186 36.0665348,8.79113581 35.7361685,8.66228579 C35.4058021,8.53343577 35.0857645,8.46901173 34.7760461,8.46901173 C34.383736,8.46901173 34.0636984,8.56178235 33.8159237,8.74732638 C33.5681489,8.9328704 33.4442634,9.17510481 33.4442634,9.47403685 C33.4442634,9.68019688 33.5062062,9.85027636 33.6300935,9.98428038 C33.7539809,10.1182844 33.9165807,10.2342477 34.1178977,10.3321737 C34.3192146,10.4300997 34.5463381,10.5151394 34.7992748,10.5872955 C35.0522116,10.6594515 35.3025636,10.7367603 35.5503383,10.8192243 C36.5414374,11.1490804 37.2666839,11.5897408 37.7260996,12.1412189 C38.1855153,12.692697 38.4152197,13.4116693 38.4152197,14.2981575 C38.4152197,14.8960215 38.3145627,15.4371835 38.1132457,15.9216596 C37.9119287,16.4061357 37.6177006,16.8210265 37.2305525,17.1663445 C36.8434045,17.5116626 36.36851,17.7796666 35.8058548,17.9703646 C35.2431996,18.1610627 34.6057053,18.2564103 33.8933529,18.2564103 C32.4170283,18.2564103 31.0491257,17.8183268 29.789604,16.9421466 L31.0904149,14.4991625 C31.5446687,14.9011745 31.9937537,15.2001021 32.4376835,15.3959541 C32.8816132,15.5918062 33.3203745,15.6897307 33.7539803,15.6897307 C34.2495298,15.6897307 34.6186054,15.5763444 34.8612182,15.3495684 C35.103831,15.1227923 35.2251356,14.8650961 35.2251356,14.5764721 C35.2251356,14.4012361 35.1941642,14.2491953 35.1322205,14.1203453 C35.0702768,13.9914953 34.9670389,13.8729551 34.8225036,13.764721 C34.6779683,13.656487 34.4895591,13.5559855 34.2572703,13.4632135 C34.0249814,13.3704415 33.7436581,13.267363 33.4132917,13.153975 C33.0209817,13.030279 32.6364204,12.8937 32.2595962,12.744234 C31.8827721,12.594768 31.5472488,12.3963419 31.2530163,12.1489499 C30.9587838,11.9015578 30.7213365,11.5897455 30.5406674,11.2135034 C30.3599984,10.8372614 30.2696652,10.3605234 30.2696652,9.78327535 C30.2696652,9.20602726 30.3651602,8.68290403 30.5561533,8.21388996 C30.7471463,7.74487589 31.015565,7.34286986 31.3614172,7.00785981 C31.7072695,6.67284976 32.130545,6.41257663 32.6312565,6.2270326 C33.131968,6.04148857 33.6920338,5.94871795 34.3114707,5.94871795 C34.8896118,5.94871795 35.4935537,6.02860376 36.1233146,6.18837779 C36.7530754,6.34815181 37.3570174,6.58265533 37.9351585,6.89189537 L36.7272626,9.2575699 Z M43.3552042,10.7728386 L47.7376984,10.7728386 L47.7376984,6.27341837 L50.772924,6.27341837 L50.772924,17.9317098 L47.7376984,17.9317098 L47.7376984,13.1230512 L43.3552042,13.1230512 L43.3552042,17.9317098 L40.3199786,17.9317098 L40.3199786,6.27341837 L43.3552042,6.27341837 L43.3552042,10.7728386 Z M56.2549132,6.27341837 L56.2549132,17.9317098 L53.2196875,17.9317098 L53.2196875,6.27341837 L56.2549132,6.27341837 Z M58.7016767,17.9317098 L58.7016767,6.27341837 L61.7369023,6.27341837 L67.3427782,13.4013658 L67.3427782,6.27341837 L70.362518,6.27341837 L70.362518,17.9317098 L67.3427782,17.9317098 L61.7369023,10.8037624 L61.7369023,17.9317098 L58.7016767,17.9317098 Z M75.6277054,12.334493 L71.369098,6.27341837 L74.9927857,6.27341837 L77.160804,9.45857493 L79.3133365,6.27341837 L82.9370242,6.27341837 L78.662931,12.334493 L78.662931,17.9317098 L75.6277054,17.9317098 L75.6277054,12.334493 Z" id="SHINY"></path>
                </g>
            </g>
        </g>
    </g>
</svg>